<svg width="24" height="24" viewBox="0 0 24 24" fill="none" xmlns="http://www.w3.org/2000/svg">
<path d="M14.8449 10.9998H21.9749C21.5049 6.2798 17.7449 2.5198 13.0249 2.0498V9.1798C13.8749 9.4898 14.5349 10.1498 14.8449 10.9998ZM15.0249 4.5798C17.0249 5.3998 18.6249 6.9998 19.4449 8.9998H16.0149C15.7349 8.6298 15.3949 8.2898 15.0249 8.0098V4.5798ZM2.0249 11.9998C2.0249 17.1898 5.9749 21.4498 11.0249 21.9498V14.8198C9.8649 14.3998 9.0249 13.2998 9.0249 11.9998C9.0249 10.6998 9.8649 9.5998 11.0249 9.1798V2.0498C5.9749 2.5498 2.0249 6.8098 2.0249 11.9998ZM9.0249 4.5798V8.0198C7.7949 8.93981 7.0249 10.4098 7.0249 11.9998C7.0249 13.5898 7.7949 15.0598 9.0249 15.9898V19.4298C6.0649 18.2398 4.0249 15.3498 4.0249 11.9998C4.0249 8.6498 6.0649 5.7598 9.0249 4.5798ZM13.0249 14.8198V21.9498C17.7449 21.4798 21.5049 17.7198 21.9749 12.9998H14.8449C14.5349 13.8498 13.8749 14.5098 13.0249 14.8198ZM15.0249 15.9898C15.3949 15.7098 15.7349 15.3798 16.0149 14.9998H19.4449C18.6249 16.9998 17.0249 18.5998 15.0249 19.4198V15.9898Z" fill="#4fd1c5"/>
</svg>
